<svg fill="#ffffff" xmlns="http://www.w3.org/2000/svg" viewBox="0 0 24 24" width="24px" height="24px">
  <path
      d="M 18.03125 0 C 16.886719 0 16.90625 0.09375 16.90625 0.09375 C 16.769531 0.753906 16.628906 1.230469 16.53125 1.5 C 15.949219 1.691406 15.398438 1.988281 14.9375 2.375 C 14.660156 2.320313 14.210938 2.1875 13.59375 1.96875 C 13.59375 1.96875 13.527344 1.910156 12.9375 2.90625 C 12.347656 3.898438 12.4375 3.9375 12.4375 3.9375 C 12.894531 4.367188 13.191406 4.714844 13.375 4.9375 C 13.296875 5.28125 13.25 5.632813 13.25 6 C 13.25 6.332031 13.277344 6.65625 13.34375 6.96875 C 13.15625 7.1875 12.871094 7.523438 12.40625 7.9375 C 12.40625 7.9375 12.304688 7.960938 12.875 8.96875 C 13.441406 9.976563 13.53125 9.9375 13.53125 9.9375 C 14.15625 9.730469 14.597656 9.609375 14.875 9.5625 C 15.332031 9.964844 15.878906 10.296875 16.46875 10.5 C 16.566406 10.765625 16.703125 11.222656 16.84375 11.90625 C 16.84375 11.90625 16.824219 12 17.96875 12 C 19.109375 12 19.09375 11.90625 19.09375 11.90625 C 19.230469 11.246094 19.371094 10.769531 19.46875 10.5 C 20.050781 10.308594 20.601563 10.011719 21.0625 9.625 C 21.339844 9.679688 21.789063 9.8125 22.40625 10.03125 C 22.40625 10.03125 22.472656 10.085938 23.0625 9.09375 C 23.652344 8.097656 23.5625 8.0625 23.5625 8.0625 C 23.105469 7.632813 22.808594 7.285156 22.625 7.0625 C 22.703125 6.722656 22.75 6.367188 22.75 6 C 22.75 5.667969 22.722656 5.34375 22.65625 5.03125 C 22.84375 4.8125 23.132813 4.476563 23.59375 4.0625 C 23.59375 4.0625 23.695313 4.039063 23.125 3.03125 C 22.558594 2.023438 22.46875 2.0625 22.46875 2.0625 C 21.84375 2.269531 21.402344 2.386719 21.125 2.4375 C 20.667969 2.035156 20.121094 1.703125 19.53125 1.5 C 19.433594 1.234375 19.296875 0.777344 19.15625 0.09375 C 19.15625 0.09375 19.171875 0 18.03125 0 Z M 18 2 C 20.210938 2 22 3.789063 22 6 C 22 8.210938 20.210938 10 18 10 C 15.789063 10 14 8.210938 14 6 C 14 3.789063 15.789063 2 18 2 Z M 18 3 C 16.34375 3 15 4.34375 15 6 C 15 7.65625 16.34375 9 18 9 C 19.65625 9 21 7.65625 21 6 C 21 4.34375 19.65625 3 18 3 Z M 18 4.5 C 18.828125 4.5 19.5 5.171875 19.5 6 C 19.5 6.828125 18.828125 7.5 18 7.5 C 17.171875 7.5 16.5 6.828125 16.5 6 C 16.5 5.171875 17.171875 4.5 18 4.5 Z M 8.03125 8 C 6.507813 8 6.53125 8.15625 6.53125 8.15625 C 6.351563 9.035156 6.160156 9.613281 6.03125 9.96875 C 5.253906 10.222656 4.550781 10.640625 3.9375 11.15625 C 3.566406 11.082031 2.949219 10.917969 2.125 10.625 C 2.125 10.625 2.035156 10.550781 1.25 11.875 C 0.464844 13.199219 0.59375 13.25 0.59375 13.25 C 1.203125 13.820313 1.601563 14.296875 1.84375 14.59375 C 1.738281 15.050781 1.65625 15.511719 1.65625 16 C 1.65625 16.441406 1.726563 16.867188 1.8125 17.28125 C 1.5625 17.574219 1.148438 18.007813 0.53125 18.5625 C 0.53125 18.5625 0.398438 18.625 1.15625 19.96875 C 1.914063 21.308594 2.03125 21.21875 2.03125 21.21875 C 2.867188 20.941406 3.472656 20.816406 3.84375 20.75 C 4.453125 21.285156 5.152344 21.699219 5.9375 21.96875 C 6.066406 22.320313 6.28125 22.933594 6.46875 23.84375 C 6.46875 23.84375 6.445313 24 7.96875 24 C 9.492188 24 9.46875 23.84375 9.46875 23.84375 C 9.648438 22.964844 9.839844 22.386719 9.96875 22.03125 C 10.746094 21.777344 11.449219 21.359375 12.0625 20.84375 C 12.433594 20.917969 13.050781 21.082031 13.875 21.375 C 13.875 21.375 13.964844 21.449219 14.75 20.125 C 15.535156 18.800781 15.40625 18.75 15.40625 18.75 C 14.796875 18.179688 14.398438 17.707031 14.15625 17.40625 C 14.261719 16.949219 14.34375 16.488281 14.34375 16 C 14.34375 15.558594 14.273438 15.132813 14.1875 14.71875 C 14.433594 14.425781 14.851563 13.992188 15.46875 13.4375 C 15.46875 13.4375 15.601563 13.371094 14.84375 12.03125 C 14.085938 10.6875 13.96875 10.78125 13.96875 10.78125 C 13.132813 11.054688 12.527344 11.183594 12.15625 11.25 C 11.546875 10.714844 10.847656 10.300781 10.0625 10.03125 C 9.933594 9.679688 9.75 9.066406 9.5625 8.15625 C 9.5625 8.15625 9.554688 8 8.03125 8 Z M 8 11 C 10.761719 11 13 13.238281 13 16 C 13 18.761719 10.761719 21 8 21 C 5.238281 21 3 18.761719 3 16 C 3 13.238281 5.238281 11 8 11 Z M 8 12 C 5.789063 12 4 13.789063 4 16 C 4 18.210938 5.789063 20 8 20 C 10.210938 20 12 18.210938 12 16 C 12 13.789063 10.210938 12 8 12 Z M 8 14 C 9.105469 14 10 14.894531 10 16 C 10 17.105469 9.105469 18 8 18 C 6.894531 18 6 17.105469 6 16 C 6 14.894531 6.894531 14 8 14 Z"/>
</svg>