<?xml version="1.0" encoding="UTF-8"?>
<svg width="200px" height="200px" viewBox="0 0 200 200" version="1.1" xmlns="http://www.w3.org/2000/svg" xmlns:xlink="http://www.w3.org/1999/xlink">
    <!-- Generator: Sketch 57 (83077) - https://sketch.com -->
    <title>Artboard</title>
    <desc>Created with Sketch.</desc>
    <g id="Artboard" stroke="none" stroke-width="1" fill="none" fill-rule="evenodd">
        <g id="clipboards" transform="translate(25.000000, 0.000000)" fill="#FFFFFF" fill-rule="nonzero">
            <ellipse id="Oval" cx="41.5883178" cy="165.384615" rx="3.73831776" ry="3.84615385"></ellipse>
            <ellipse id="Oval" cx="86.4481308" cy="165.384615" rx="3.73831776" ry="3.84615385"></ellipse>
            <ellipse id="Oval" cx="108.878037" cy="165.384615" rx="3.73831776" ry="3.84615385"></ellipse>
            <ellipse id="Oval" cx="64.0182243" cy="165.384615" rx="3.73831776" ry="3.84615385"></ellipse>
            <rect id="Rectangle" x="37.85" y="115.384615" width="7.47663551" height="30.7692308"></rect>
            <rect id="Rectangle" x="82.7098131" y="107.692308" width="7.47663551" height="38.4615385"></rect>
            <rect id="Rectangle" x="105.13972" y="76.9230769" width="7.47663551" height="69.2307692"></rect>
            <rect id="Rectangle" x="60.2799065" y="100" width="7.47663551" height="46.1538462"></rect>
            <ellipse id="Oval" cx="75.3453271" cy="23.0769231" rx="5.60747664" ry="5.76923077"></ellipse>
            <path d="M149.999533,46.1533654 C149.999533,37.6567308 143.304673,30.76875 135.046262,30.76875 L114.287383,30.76875 C111.518224,27.6038462 107.961215,25.1822115 103.874299,23.9725962 C100.431308,22.9543269 97.7817757,20.2283654 96.7920561,16.6865385 C94.0981308,7.05 85.4658879,0 75.2327103,0 C65,0 56.3682243,7.04951923 53.6747664,16.6855769 C52.6831776,20.2317308 50.0271028,22.9543269 46.5803738,23.9764423 C42.4981308,25.1870192 38.9443925,27.60625 36.1775701,30.76875 L15.4200935,30.76875 C7.16121495,30.76875 0.46682243,37.6567308 0.46682243,46.1533654 L0.46682243,184.614423 C0.46682243,193.111058 7.16121495,199.999038 15.4200935,199.999038 C49.75,199.999038 91.9425234,199.999038 135.046262,199.999038 C143.30514,199.999038 149.999533,193.111058 149.999533,184.614423 C149.999533,140.922596 149.999533,99.0846154 149.999533,46.1533654 Z M37.8504673,46.0298077 C37.9018692,39.2673077 42.3429907,33.2384615 48.6504673,31.3682692 C54.5897196,29.6076923 59.1537383,24.9134615 60.8593458,18.8125 C62.6901869,12.2644231 68.6004673,7.69230769 75.2327103,7.69230769 C81.8654206,7.69230769 87.7757009,12.2644231 89.6056075,18.8125 C91.3121495,24.9173077 95.8733645,29.6100962 101.806542,31.3653846 C108.170561,33.2485577 112.615421,39.3298077 112.615421,46.1528846 L112.615421,53.8451923 L37.8504673,53.8451923 L37.8504673,46.0298077 Z M135.046262,192.306731 C95.1140187,192.306731 55.2471963,192.306731 15.4200935,192.306731 C11.2971963,192.306731 7.94345794,188.855769 7.94345794,184.614423 L7.94345794,46.1533654 C7.94345794,41.9120192 11.2971963,38.4610577 15.4200935,38.4610577 L31.6546729,38.4610577 C30.8462617,40.8129808 30.3939252,43.3375 30.3742991,45.9692308 L30.3742991,61.5379808 L120.092991,61.5379808 L120.092991,46.1533654 C120.092991,43.4538462 119.629439,40.8692308 118.801402,38.4610577 L135.046262,38.4610577 C139.168692,38.4610577 142.523364,41.9120192 142.523364,46.1533654 C142.523364,68.1451923 142.521963,171.275481 142.523364,184.614423 C142.523364,188.855769 139.169159,192.306731 135.046262,192.306731 Z" id="Shape"></path>
        </g>
    </g>
</svg>