<?xml version="1.0" encoding="UTF-8"?>
<svg width="200px" height="200px" viewBox="0 0 200 200" version="1.1" xmlns="http://www.w3.org/2000/svg" xmlns:xlink="http://www.w3.org/1999/xlink">
    <!-- Generator: Sketch 57 (83077) - https://sketch.com -->
    <title>Artboard</title>
    <desc>Created with Sketch.</desc>
    <g id="Artboard" stroke="none" stroke-width="1" fill="none" fill-rule="evenodd">
        <g id="artificial-intelligence" transform="translate(15.000000, 0.000000)" fill="#C5C5C5" fill-rule="nonzero">
            <path d="M169.397487,96.680548 C174.631958,68.4013393 166.086732,29.5281175 134.950405,11.0037265 C115.284922,0.0305328632 92.089224,-2.87287264 70.303335,2.91207008 C40.125725,10.9389027 17.9441001,32.4783836 10.9688624,60.5295373 C9.41379308,66.2191968 8.75462585,72.114262 9.01570161,78.0046411 C9.34980007,81.6593784 10.0278119,85.2750652 11.0410999,88.8036694 C12.4045828,93.2944782 13.0798464,97.9641383 13.0433351,102.655276 C12.902786,108.239499 9.03572397,114.033424 5.62014632,119.145917 C1.89677409,124.725063 -1.31897263,129.543115 0.545854245,133.986673 C2.3156731,136.998639 5.43052287,138.983186 8.92108619,139.323706 C9.12209489,139.359633 9.32545917,139.380329 9.52960864,139.385406 C10.4624147,139.271769 11.3975763,139.579487 12.0779436,140.224602 C12.758311,140.869716 13.1124318,141.783888 13.0433351,142.716024 C13.0433351,149.640851 13.2168621,153.213973 16.0926215,154.852533 C15.8417532,155.373466 15.6666557,155.927593 15.5724329,156.49734 C15.2834829,158.452209 15.9913319,160.421526 17.4600303,161.751196 C18.9204842,163.158186 20.770785,164.097741 22.7730202,164.448805 C22.9135693,164.481217 23.0478368,164.505819 23.178571,164.536669 C23.2578752,165.03222 23.2928162,165.533628 23.2833939,166.035427 C23.2594456,167.2745 23.1711117,168.512011 23.0183922,169.742102 C22.4620849,175.072497 21.7000577,182.37338 32.4210456,185.858638 C34.5728595,186.456892 36.8031924,186.726731 39.0362735,186.659174 C49.1879985,186.210874 59.220767,184.297789 68.819718,180.980449 C71.591047,185.787566 73.2619319,191.143735 73.7122385,196.667429 C73.7118459,197.551142 74.064789,198.398929 74.6933338,199.024128 C75.321486,199.648936 76.17381,200 77.0626454,200 L160.816143,200 C162.248722,199.982427 163.509345,199.054197 163.943948,197.69602 C164.38444,196.319099 163.904688,194.815654 162.746533,193.943656 C159.28031,191.32571 147.801221,163.743943 147.448278,153.836829 C148.459996,151.551983 149.815234,148.986365 151.420163,146.00603 C160.158938,130.687295 166.236704,114.011165 169.397487,96.680548 Z M140.723124,153.502166 C140.808317,161.471594 148.031282,182.529192 154.236641,193.33564 L80.1288134,193.33564 C79.2945487,188.229785 77.6315157,183.29302 75.2044926,178.718252 C84.9110147,174.934258 93.461344,170.068955 97.5655335,164.729578 C98.6824667,163.266356 98.399013,161.179887 96.9310998,160.064604 C95.4635792,158.948931 93.3651582,159.225018 92.2391954,160.681212 C82.758023,173.021173 43.3088864,182.390172 34.5014072,179.524645 C28.9234155,177.710359 29.1456244,175.580544 29.6823019,170.432515 C29.8601475,168.973197 29.9606519,167.505679 29.9834224,166.036208 C29.9834224,160.421135 27.7063706,158.745087 24.2841189,157.955877 C23.6382999,157.864108 23.0215329,157.627071 22.481322,157.26273 C23.1389189,156.637531 23.8852422,156.111911 24.6963438,155.702272 C26.0947676,155.018888 26.835202,153.46702 26.4826516,151.957328 C26.1301012,150.447635 24.7787887,149.378822 23.2205787,149.377651 C22.0102079,149.377651 20.6655695,149.377651 19.9588983,149.289787 C19.7461117,147.105302 19.6738742,144.909882 19.742971,142.716415 C19.8085344,140.088706 18.804276,137.546127 16.9582937,135.665454 C15.1123114,133.784782 12.5804654,132.725341 9.93790758,132.727684 C7.52344752,132.22159 6.79047241,131.570618 6.72844238,131.419492 C6.24083922,130.262816 9.46993418,125.430315 11.2040269,122.833456 C14.9238657,117.26212 19.5533475,110.32753 19.742971,102.825146 C19.8368012,98.661971 19.3711834,94.5050441 18.358288,90.4644877 C22.0113857,87.2670318 26.3224728,84.9021328 30.9908215,83.5357555 C32.6542471,83.2467817 34.3636063,83.3658857 35.9701056,83.8821335 C37.7536652,84.3710459 39.5976846,83.3291783 40.0892137,81.555504 C40.5807428,79.7814393 39.533299,77.9472368 37.7501319,77.4583244 C35.1118926,76.6507598 32.3150449,76.4984628 29.6037829,77.0139296 C24.8694782,78.2135613 20.4449311,80.3992184 16.6226249,83.426414 C16.164859,81.4852131 15.8551014,79.5123813 15.6961004,77.5247103 C15.4691804,72.3317733 16.0686732,67.1357123 17.4725933,62.1290462 C23.950413,36.0870413 43.8353564,16.8499785 72.0366425,9.34876584 C92.0695943,4.00470339 113.408317,6.65115653 131.508523,16.7246264 C159.902966,33.6155345 167.63709,69.3858027 162.80817,95.4731062 C159.797358,112.132835 153.948476,128.159165 145.514355,142.860902 C143.672298,146.279383 142.082288,149.231211 140.933947,151.962795 C140.740005,152.451707 140.667375,152.97967 140.723124,153.502166 Z" id="Shape"></path>
            <path d="M148.221103,102.761403 C148.701367,97.65746 145.157012,93.0335505 140.044817,92.0951974 L133.617305,83.3122897 C134.011428,82.5957292 134.313511,81.8334142 134.516472,81.0427935 L140.741023,78.5891165 C143.615919,81.81519 148.272237,82.8473784 152.270896,81.1447716 C156.269555,79.4421647 158.699588,75.3928996 158.288158,71.1179644 C157.876728,66.8430293 154.716663,63.3172256 150.464302,62.3866274 L145.421727,52.4707166 C148.959003,48.9177705 149.264625,43.3260389 146.134453,39.4194655 C143.004281,35.5125043 137.415756,34.5097848 133.090234,37.0790112 L127.467095,32.4768157 C127.892685,31.3802609 128.115314,30.2177887 128.124754,29.0436841 C128.133801,24.9897659 125.63572,21.3394948 121.819176,19.829987 C118.002632,18.3200916 113.637777,19.2557304 110.80182,22.1913798 L100.8508,19.7392537 C99.6589899,15.4840937 95.7445049,12.5271182 91.2663686,12.5001805 C86.7882323,12.4736088 82.8375603,15.3832789 81.5934369,19.6237044 L68.2947291,22.2456647 C64.8258943,18.5581696 59.1004879,18.0281164 54.9960213,21.0149487 C50.8915547,24.0013932 49.7182319,29.55086 52.2701992,33.9052838 L45.7537931,42.4601949 C41.0841019,43.2923047 37.643194,47.2337756 37.5043463,51.9096435 C37.3654985,56.5855113 40.5668644,60.7185303 45.1791284,61.8185748 L50.5674454,74.9318658 C47.6111282,77.7926796 46.7383144,82.1486543 48.3690876,85.90323 C49.9998608,89.657418 53.8002783,92.0409125 57.9405385,91.9059757 C62.0807988,91.771039 65.7136549,89.1459768 67.089546,85.2936883 L85.109472,85.2936883 C86.6139842,89.8559456 91.3088489,92.6182711 96.0961477,91.7582433 L107.238978,108.466745 C104.380208,111.591228 103.83701,116.155037 105.883934,119.847185 C107.930857,123.538945 112.121464,125.552527 116.332525,124.867374 C120.543586,124.182221 123.855479,120.948393 124.590625,116.803741 L132.908513,110.249616 C134.491299,111.233336 136.323067,111.758348 138.194169,111.764552 C143.394471,111.768042 147.741233,107.865734 148.221103,102.761403 Z M148.263977,68.749197 C149.942737,68.7457147 151.365829,69.9655737 151.595537,71.6045897 C151.825639,73.2436057 150.791558,74.7984801 149.175338,75.2443917 C147.559118,75.6903033 145.856758,74.8903766 145.190052,73.3715629 C145.178645,73.3413185 145.184939,73.3099108 145.172745,73.2796663 L145.151505,73.2474832 C144.995351,72.8694277 144.912357,72.4661685 144.907243,72.0578685 C144.909603,70.2315697 146.410969,68.7511432 148.263977,68.749197 Z M134.908629,44.9150352 C135.230772,43.3791606 136.603909,42.277565 138.194956,42.2787273 C140.048751,42.2787273 141.551296,43.7599303 141.551296,45.5873924 C141.551296,47.4148545 140.048751,48.8960565 138.194956,48.8960565 C137.779592,48.8910158 137.369342,48.8092007 136.984659,48.6548765 L136.955946,48.6362645 C136.926445,48.624632 136.895372,48.630836 136.865085,48.6195913 C135.403446,47.9988048 134.586093,46.4512976 134.908629,44.9150352 Z M131.569595,53.0038718 L131.569595,53.0038718 L125.367072,68.2920481 L114.49407,59.7173618 C115.969082,58.476952 117.046824,56.8410381 117.597495,55.0081475 L130.896203,52.3861872 C131.107425,52.6068166 131.338313,52.8030177 131.569595,53.0038718 Z M127.996133,79.5697342 C127.544189,81.161057 125.969663,82.1792865 124.308603,81.9536165 C122.647936,81.7279464 121.410893,80.3285595 121.412465,78.6755845 C121.414433,76.8488979 122.915798,75.3684714 124.768807,75.3669204 C125.18417,75.3719612 125.59442,75.4537762 125.979103,75.6081004 L126.007817,75.6267124 C126.038104,75.6387326 126.069964,75.6336919 126.100251,75.6445489 C127.63859,76.3021715 128.448077,77.9780237 127.996133,79.5697342 Z M118.055732,25.7350199 C119.909527,25.7350199 121.412073,27.216222 121.412073,29.0436841 C121.412073,30.8711461 119.909134,32.3523482 118.055732,32.3523482 C116.202331,32.3523482 114.699392,30.8711461 114.699392,29.0436841 C114.701359,27.2169975 116.202724,25.7369587 118.055732,25.7350199 Z M100.392563,26.4469275 L108.059085,28.3364295 C108.041385,28.5745075 107.986711,28.8017285 107.986711,29.0440718 C107.992611,34.5237438 112.497494,38.9646357 118.056126,38.9704519 C119.856034,38.9611459 121.620148,38.4714186 123.16006,37.5528407 L128.783593,42.1550363 C128.358003,43.2515911 128.134981,44.4140632 128.125541,45.5881679 C128.125541,45.7882465 128.173921,45.9755294 128.185328,46.1728937 L117.253719,48.3280039 C115.882941,45.1825822 112.965171,42.9549629 109.532917,42.4334402 L97.2435104,30.3189912 C98.6079948,29.3108433 99.6916369,27.9789247 100.392563,26.4469275 Z M111.343051,52.2054961 C111.343051,54.0329582 109.840506,55.5141602 107.986711,55.5141602 C106.133702,55.5122215 104.631944,54.0321827 104.63037,52.2054961 C104.63037,50.378034 106.132916,48.896832 107.986711,48.896832 C109.840506,48.896832 111.343051,50.378034 111.343051,52.2054961 Z M91.2042214,19.117304 C93.0580165,19.117304 94.560562,20.598506 94.560562,22.4259681 C94.560562,24.2534302 93.0580165,25.7346322 91.2042214,25.7346322 C89.3504264,25.7346322 87.8478809,24.2534302 87.8478809,22.4259681 C87.8494542,20.5996692 89.3512131,19.1192427 91.2042214,19.117304 Z M91.8693535,34.3802766 L101.946635,44.3132484 C100.379976,45.4799858 99.1940662,47.0732474 98.5356208,48.8964442 L90.5855031,48.8964442 C89.79293,46.7056611 88.2439708,44.8595871 86.2096343,43.6808295 L91.8693535,34.3802766 Z M71.0056044,28.459346 L81.937213,26.3042358 C82.7950799,28.2546144 84.2645852,29.8831611 86.1293936,30.9506347 L80.0366109,40.9611564 L69.5038456,34.2988493 C70.5186538,32.7280772 71.0598848,30.9056558 71.0653916,29.0436841 C71.0653916,28.8436055 71.0170112,28.6563226 71.0056044,28.459346 Z M84.491147,52.2054961 C84.491147,54.0329582 82.9886015,55.5141602 81.1348065,55.5141602 C79.2817981,55.5122215 77.7800393,54.0321827 77.778466,52.2054961 C77.778466,50.378034 79.2810115,48.896832 81.1348065,48.896832 C82.9886015,48.896832 84.491147,50.378034 84.491147,52.2054961 Z M60.9959766,25.7350199 C62.8497716,25.7350199 64.3523172,27.216222 64.3523172,29.0436841 C64.3523172,30.8711461 62.8497716,32.3523482 60.9959766,32.3523482 C59.1421816,32.3523482 57.6396361,30.8711461 57.6396361,29.0436841 C57.6412094,27.2169975 59.1429683,25.7369587 60.9959766,25.7350199 Z M57.342667,38.2694013 C59.3876236,39.1007356 61.6642554,39.1957342 63.7733258,38.5381115 L74.1365631,45.0930121 C73.0336475,46.1581592 72.1942674,47.4598334 71.6841099,48.8964442 L57.0209177,48.8964442 C56.2881318,46.8483529 54.8949339,45.0930121 53.0541189,43.8999078 L57.342667,38.2694013 Z M47.5698278,55.5141602 C45.7160328,55.5141602 44.2134873,54.0329582 44.2134873,52.2054961 C44.215454,50.3788095 45.7168195,48.898383 47.5698278,48.896832 C49.4236228,48.896832 50.9261684,50.378034 50.9261684,52.2054961 C50.9261684,54.0329582 49.4236228,55.5141602 47.5698278,55.5141602 Z M57.6392428,85.2933005 C55.7854477,85.2933005 54.2829022,83.8117107 54.2829022,81.9846364 C54.2829022,80.1571743 55.7854477,78.6759723 57.6392428,78.6759723 C59.4930378,78.6759723 60.9955833,80.1575621 60.9955833,81.9846364 C60.9940099,83.811323 59.4922511,85.2913618 57.6392428,85.2933005 Z M59.5481049,72.2482534 C58.9195531,72.1249492 58.2799879,72.0613583 57.6392428,72.0578685 C57.3068734,72.0578685 56.9929909,72.1233982 56.6688816,72.1548059 L52.0951645,61.0236889 C54.3918564,59.876339 56.1543974,57.9042464 57.0205244,55.5141602 L71.6837166,55.5141602 C72.2882748,57.1807064 73.3349433,58.6568677 74.7147678,59.7887077 L59.5481049,72.2482534 Z M85.1098654,78.6755845 L67.0899393,78.6755845 C66.7316098,77.6844975 66.2143722,76.7562259 65.5582869,75.9264425 L82.0426272,62.3846887 L87.6559327,74.7957658 C86.5089634,75.8729331 85.636543,77.2025252 85.1098654,78.6755845 Z M90.5855031,55.5141602 L98.5360142,55.5141602 C99.3285873,57.7049433 100.877546,59.5510174 102.911883,60.729775 L95.9333064,72.1951318 C95.4793961,72.1183574 95.021159,72.072603 94.5609553,72.0582563 C94.3009599,72.0582563 94.0566979,72.1148677 93.8014225,72.1338674 L88.0394358,59.3943667 C89.1864051,58.3168116 90.0588255,56.9872195 90.5855031,55.5141602 Z M94.560562,85.2933005 C92.7067669,85.2933005 91.2042214,83.8117107 91.2042214,81.9846364 C91.2042214,80.1571743 92.7071603,78.6759723 94.560562,78.6759723 C96.414357,78.6759723 97.9169025,80.1575621 97.9169025,81.9846364 C97.9153291,83.811323 96.4135703,85.2913618 94.560562,85.2933005 Z M108.887845,63.7716677 L118.261447,71.1641066 C116.786829,72.4049041 115.708693,74.0408181 115.158022,75.8733209 L103.82757,78.1071442 C103.36068,77.049752 102.710888,76.0807667 101.906908,75.2432284 L108.887845,63.7716677 Z M114.699392,118.381105 C112.845597,118.381105 111.343051,116.899903 111.343051,115.072441 C111.343051,113.244979 112.845597,111.763777 114.699392,111.763777 C116.553187,111.763777 118.055732,113.244979 118.055732,115.072441 C118.054159,116.899127 116.5524,118.379554 114.699392,118.381105 Z M128.125147,101.837397 C128.137341,102.94287 128.339122,104.038261 128.721839,105.077429 L123.055826,109.542361 C120.937316,106.280227 117.028731,104.6036 113.163413,105.299222 L102.020582,88.5907199 C103.016117,87.4964916 103.75087,86.1971439 104.171347,84.7872878 L115.501798,82.5534645 C117.662003,87.5829597 123.541203,89.9428014 128.650645,87.8311192 L132.791298,93.4891558 C129.890835,95.3030467 128.131047,98.4511826 128.125147,101.837397 Z M131.394167,71.2594929 L137.798472,55.4746098 C137.9326,55.4800383 138.058861,55.5141602 138.194562,55.5141602 C138.598912,55.4986503 139.002082,55.4583243 139.401712,55.393958 L143.465665,63.3858572 C140.230079,65.1066882 138.207542,68.4339643 138.194562,72.0582563 C138.194562,72.1924175 138.229569,72.316885 138.234683,72.449883 L133.721933,74.2284887 C133.144908,73.1020772 132.354695,72.094317 131.394167,71.2594929 Z M138.194562,105.146061 C136.340767,105.146061 134.838222,103.664859 134.838222,101.837397 C134.840188,100.01071 136.341554,98.5302835 138.194562,98.5287325 C140.048357,98.5287325 141.550903,100.009934 141.550903,101.837397 C141.550903,103.664859 140.048357,105.146061 138.194562,105.146061 Z" id="Shape"></path>
        </g>
    </g>
</svg>