<?xml version="1.0" encoding="UTF-8"?>
<svg width="200px" height="200px" viewBox="0 0 200 200" version="1.1" xmlns="http://www.w3.org/2000/svg" xmlns:xlink="http://www.w3.org/1999/xlink">
    <!-- Generator: Sketch 57 (83077) - https://sketch.com -->
    <title>Artboard</title>
    <desc>Created with Sketch.</desc>
    <g id="Artboard" stroke="none" stroke-width="1" fill="none" fill-rule="evenodd">
        <g id="neural" fill="#C5C5C5" fill-rule="nonzero">
            <path d="M38.2133333,116 C34.7133333,114.31 30.8066667,113.333333 26.6666667,113.333333 C11.9633333,113.333333 0,125.296667 0,140 C0,154.703333 11.9633333,166.666667 26.6666667,166.666667 C35.8933333,166.666667 44.0366667,161.953333 48.8266667,154.81 L74.0166667,167.42 C73.5833333,169.323333 73.3333333,171.3 73.3333333,173.333333 C73.3333333,188.036667 85.2966667,200 100,200 C114.703333,200 126.666667,188.036667 126.666667,173.333333 C126.666667,167.806667 124.976667,162.67 122.083333,158.406667 L157.48,121.396667 C161.92,124.69 167.393333,126.666667 173.333333,126.666667 C188.036667,126.666667 200,114.703333 200,100 C200,85.2966667 188.036667,73.3333333 173.333333,73.3333333 C167.18,73.3333333 161.526667,75.4466667 157.006667,78.96 L121.04,42.9933333 C124.553333,38.4733333 126.666667,32.82 126.666667,26.6666667 C126.666667,11.9633333 114.703333,0 100,0 C85.2966667,0 73.3333333,11.9633333 73.3333333,26.6666667 C73.3333333,28.6933333 73.58,30.6633333 74.0133333,32.5633333 L50.3733333,41.1766667 C45.94,32.5733333 36.99,26.6666667 26.6666667,26.6666667 C11.9633333,26.6666667 0,38.63 0,53.3333333 C0,68.0366667 11.9633333,80 26.6666667,80 C30.46,80 34.0633333,79.1933333 37.3333333,77.7566667 L49.6033333,98.4066667 L38.2133333,116 Z M26.6666667,160 C15.6366667,160 6.66666667,151.03 6.66666667,140 C6.66666667,128.97 15.6366667,120 26.6666667,120 C37.6966667,120 46.6666667,128.97 46.6666667,140 C46.6666667,151.03 37.6966667,160 26.6666667,160 Z M51.7966667,148.836667 C52.7733333,146.066667 53.3333333,143.1 53.3333333,140 C53.3333333,131.823333 49.6266667,124.503333 43.8166667,119.61 L53.4033333,104.803333 L82.3066667,153.44 C79.8733333,155.606667 77.8366667,158.2 76.3266667,161.116667 L51.7966667,148.836667 Z M100,53.3333333 C106.153333,53.3333333 111.806667,51.22 116.326667,47.7066667 L152.296667,83.6766667 C150.14,86.45 148.526667,89.6533333 147.596667,93.14 L126.656667,90.26 C126.653333,90.1733333 126.666667,90.0866667 126.666667,90 C126.666667,75.2966667 114.703333,63.3333333 100,63.3333333 C90.7733333,63.3333333 82.6266667,68.0466667 77.84,75.19 L73.8633333,73.2033333 L88.4566667,50.6666667 C91.9533333,52.3566667 95.86,53.3333333 100,53.3333333 Z M103.333333,146.896667 L103.333333,116.433333 C114.166667,115.073333 122.98,107.2 125.74,96.86 L146.68,99.74 C146.68,99.8266667 146.666667,99.9133333 146.666667,100 C146.666667,106.366667 148.913333,112.21 152.65,116.8 L117.65,153.396667 C113.726667,149.92 108.79,147.583333 103.333333,146.896667 L103.333333,146.896667 Z M100,70 C111.03,70 120,78.97 120,90 C120,101.03 111.03,110 100,110 C88.97,110 80,101.03 80,90 C80,78.97 88.97,70 100,70 L100,70 Z M74.87,81.1633333 C73.8933333,83.9333333 73.3333333,86.9 73.3333333,90 C73.3333333,103.573333 83.5333333,114.786667 96.6666667,116.436667 L96.6666667,146.9 C93.5066667,147.296667 90.5233333,148.243333 87.8066667,149.646667 L57.4466667,98.5566667 L70.2166667,78.8366667 L74.87,81.1633333 Z M100,193.333333 C88.97,193.333333 80,184.363333 80,173.333333 C80,162.303333 88.97,153.333333 100,153.333333 C111.03,153.333333 120,162.303333 120,173.333333 C120,184.363333 111.03,193.333333 100,193.333333 Z M173.333333,80 C184.363333,80 193.333333,88.97 193.333333,100 C193.333333,111.03 184.363333,120 173.333333,120 C162.303333,120 153.333333,111.03 153.333333,100 C153.333333,88.97 162.303333,80 173.333333,80 Z M100,6.66666667 C111.03,6.66666667 120,15.6366667 120,26.6666667 C120,37.6966667 111.03,46.6666667 100,46.6666667 C88.97,46.6666667 80,37.6966667 80,26.6666667 C80,15.6366667 88.97,6.66666667 100,6.66666667 Z M76.2933333,38.8233333 C77.9233333,41.9866667 80.1533333,44.7833333 82.85,47.0566667 L67.8633333,70.2033333 L51.7966667,62.17 C52.7733333,59.4 53.3333333,56.4333333 53.3333333,53.3333333 C53.3333333,51.3066667 53.0866667,49.3366667 52.6533333,47.4366667 L76.2933333,38.8233333 Z M6.66666667,53.3333333 C6.66666667,42.3033333 15.6366667,33.3333333 26.6666667,33.3333333 C37.6966667,33.3333333 46.6666667,42.3033333 46.6666667,53.3333333 C46.6666667,64.3633333 37.6966667,73.3333333 26.6666667,73.3333333 C15.6366667,73.3333333 6.66666667,64.3633333 6.66666667,53.3333333 Z M43.05,74.33 C45.2833333,72.5833333 47.2433333,70.5033333 48.8266667,68.1433333 L64.2166667,75.8366667 L53.6466667,92.16 L43.05,74.33 Z" id="Shape"></path>
        </g>
    </g>
</svg>