<?xml version="1.0" encoding="UTF-8"?>
<svg width="200px" height="200px" viewBox="0 0 200 200" version="1.1" xmlns="http://www.w3.org/2000/svg" xmlns:xlink="http://www.w3.org/1999/xlink">
    <!-- Generator: Sketch 57 (83077) - https://sketch.com -->
    <title>Artboard</title>
    <desc>Created with Sketch.</desc>
    <g id="Artboard" stroke="none" stroke-width="1" fill="none" fill-rule="evenodd">
        <g id="viewer" transform="translate(0.000000, 29.000000)" fill="#C5C5C5" fill-rule="nonzero">
            <path d="M183.870968,0 L16.1290323,0 C7.22535904,0.00998346105 0.00999976723,7.21357696 0,16.1027313 L0,125.601305 C0.00999976723,134.490459 7.22535904,141.694052 16.1290323,141.704036 L183.870968,141.704036 C192.774641,141.694052 199.99,134.490459 200,125.601305 L200,16.1027313 C199.99,7.21357696 192.774641,0.00998346105 183.870968,0 Z M6.4516129,16.1027313 C6.45783449,10.7693306 10.7869203,6.44730398 16.1290323,6.44109254 L183.870968,6.44109254 C189.21308,6.44730398 193.542166,10.7693306 193.548387,16.1027313 L193.548387,19.3232776 L6.4516129,19.3232776 L6.4516129,16.1027313 Z M193.548387,125.601305 C193.542166,130.934705 189.21308,135.256732 183.870968,135.262943 L16.1290323,135.262943 C10.7869203,135.256732 6.45783449,130.934705 6.4516129,125.601305 L6.4516129,25.7643702 L193.548387,25.7643702 L193.548387,125.601305 Z" id="Shape"></path>
            <circle id="Oval" cx="15.6950673" cy="13.0044843" r="3.13901345"></circle>
            <circle id="Oval" cx="29.1479821" cy="13.0044843" r="3.13901345"></circle>
            <circle id="Oval" cx="41.7040359" cy="13.0044843" r="3.13901345"></circle>
            <path d="M138.498285,87.1844911 C138.221157,86.2919207 137.269304,85.7925344 136.373352,86.068017 C135.47672,86.3436688 134.974627,87.2906932 135.251585,88.1829254 C137.278139,94.7109675 138.305774,101.485405 138.305774,108.318186 C138.305774,113.982576 133.675641,118.590864 127.984401,118.590864 L120.761225,118.590864 C115.070155,118.590864 110.440022,113.982576 110.440022,108.318186 L110.440022,104.032224 C113.183779,108.221793 117.418524,111.413096 122.514048,112.782561 C122.662383,112.822471 122.811396,112.841411 122.958031,112.841411 C123.706839,112.841411 124.392778,112.344731 124.597353,111.590663 C124.841858,110.68896 124.305952,109.760707 123.399975,109.517187 C115.769347,107.466541 110.440022,100.540241 110.440022,92.6735122 L110.440022,68.0216216 C110.440022,64.7406894 112.605565,62.7724006 114.632289,62.0244205 C116.659012,61.2769476 119.590353,61.3637018 121.739585,63.8516702 C124.6033,67.1667629 127.157094,70.7734039 129.329943,74.5718173 C129.794146,75.3835525 130.831805,75.6668142 131.647218,75.2046325 C132.462631,74.7426199 132.747406,73.7100251 132.283033,72.8982899 C130.002459,68.9116554 127.32208,65.1260945 124.316147,61.6464563 C121.608921,58.5126511 117.344102,57.415963 113.450713,58.8530725 C109.557494,60.2900129 107.04176,63.8888747 107.04176,68.0216216 L107.04176,79.8426845 L103.643498,76.4604545 L103.643498,43.8435814 C103.643498,42.9095786 102.882797,42.1524664 101.944367,42.1524664 L94.4681895,42.1524664 C93.5297593,42.1524664 92.7690583,42.9095786 92.7690583,43.8435814 L92.7690583,76.4606236 L89.370796,79.8428536 L89.370796,68.0217907 C89.370796,63.8890439 86.8550624,60.290182 82.9618431,58.8534107 C79.0686239,57.4166394 74.8036347,58.5129893 72.0964091,61.6467945 C60.8836726,74.6257639 54.7085202,91.2008893 54.7085202,108.318186 C54.7085202,115.847537 60.8631131,121.973094 68.4281548,121.973094 L75.6513313,121.973094 C83.2162031,121.973094 89.370796,115.847537 89.370796,108.318186 L89.370796,95.1487972 L98.206278,86.3549992 L107.04176,95.1487972 L107.04176,108.318186 C107.04176,115.847537 113.196353,121.973094 120.761395,121.973094 L127.984571,121.973094 C135.549443,121.973094 141.704036,115.847537 141.704036,108.318186 C141.704036,101.146506 140.625427,94.0360436 138.498285,87.1844911 Z M85.9727035,92.6735122 C85.9727035,100.540241 80.6432087,107.466541 73.0127505,109.517356 C72.1067825,109.760876 71.5706979,110.689129 71.8153728,111.590832 C72.0199482,112.3449 72.7057175,112.841581 73.4546945,112.841581 C73.6013295,112.841581 73.7503433,112.82264 73.8986775,112.78273 C78.9942019,111.413265 83.2289465,108.221793 85.9727035,104.032393 L85.9727035,108.318355 C85.9727035,113.982576 81.3424012,118.590864 75.6511614,118.590864 L68.4281548,118.590864 C62.7369149,118.590864 58.1067825,113.982576 58.1067825,108.318186 C58.1067825,92.0094113 63.9900242,76.2176104 74.6731415,63.8515011 C76.8223725,61.3637018 79.7538835,61.2764403 81.7804372,62.0244205 C83.806991,62.7724006 85.9727035,64.7406894 85.9727035,68.0216216 L85.9727035,92.6735122 Z M96.1673206,45.5346964 L100.245235,45.5346964 L100.245235,51.6227103 L96.1673206,51.6227103 L96.1673206,45.5346964 Z M96.1673206,55.0049403 L100.245235,55.0049403 L100.245235,61.0929543 L96.1673206,61.0929543 L96.1673206,55.0049403 Z M96.1673206,64.4751843 L100.245235,64.4751843 L100.245235,70.5631983 L96.1673206,70.5631983 L96.1673206,64.4751843 Z M89.370796,90.3656476 L89.370796,84.6260033 L92.9199411,81.0936023 L95.8033667,83.9634244 L89.370796,90.3656476 Z M98.206278,81.5718496 L95.3228524,78.7020274 L95.6696451,78.3568709 C95.9882322,78.0397868 96.1673206,77.6095672 96.1673206,77.1610835 L96.1673206,73.9454283 L100.245235,73.9454283 L100.245235,77.1610835 C100.245235,77.6095672 100.424324,78.0397868 100.742911,78.3568709 L101.089704,78.7020274 L98.206278,81.5718496 Z M107.04176,90.3656476 L100.609359,83.9635935 L103.492785,81.0937714 L107.04176,84.6260033 L107.04176,90.3656476 Z" id="XMLID_202_"></path>
            <path d="M133.631391,82.5112108 C134.104697,82.5112108 134.567246,82.3192825 134.900711,81.9856502 C135.234177,81.6520179 135.426009,81.1892377 135.426009,80.7174888 C135.426009,80.2439462 135.234177,79.7811659 134.900711,79.4475336 C134.567246,79.1139013 134.104697,78.9237668 133.631391,78.9237668 C133.159877,78.9237668 132.697328,79.1139013 132.363863,79.4475336 C132.030397,79.7829596 131.838565,80.2439462 131.838565,80.7174888 C131.838565,81.1892377 132.030397,81.6520179 132.363863,81.9856502 C132.697328,82.3192825 133.159877,82.5112108 133.631391,82.5112108 Z" id="XMLID_1412_"></path>
        </g>
    </g>
</svg>