<?xml version="1.0" encoding="UTF-8"?>
<svg width="200px" height="200px" viewBox="0 0 200 200" version="1.1" xmlns="http://www.w3.org/2000/svg" xmlns:xlink="http://www.w3.org/1999/xlink">
    <!-- Generator: Sketch 57 (83077) - https://sketch.com -->
    <title>Artboard</title>
    <desc>Created with Sketch.</desc>
    <g id="Artboard" stroke="none" stroke-width="1" fill="none" fill-rule="evenodd">
        <g id="tag" transform="translate(0.000000, 6.000000)" fill="#C5C5C5" fill-rule="nonzero">
            <path d="M177.775829,15.2599627 C177.765326,6.83048173 170.931191,0 162.500595,0 L98.5385343,0 C94.4872266,0 90.6020579,1.60902582 87.737116,4.47376023 L4.47572584,87.7258067 C-1.49143116,93.6920936 -1.49190857,103.366302 4.47429361,109.334021 L68.4363541,173.302585 C71.4192164,176.285729 75.3292105,177.777778 79.2392046,177.777778 C81.700257,177.777778 84.1345744,177.116979 86.3645601,175.934799 C94.5254195,169.213654 82.4512241,180.892222 173.302013,90.0510161 C176.16791,87.1853268 177.777778,83.2988372 177.777778,79.2461929 C177.777778,14.3599587 177.777778,25.4440935 177.775829,15.2599627 Z M170.139644,79.2457154 C170.139644,81.2863612 169.344278,83.2052558 167.901543,84.6481271 L84.639675,167.901606 C83.1969397,169.344477 81.2787033,170.138963 79.2382498,170.138963 C77.1977962,170.138963 75.2800372,169.344 73.8368245,167.901606 L9.87571886,103.932564 C8.43298357,102.489693 7.63857208,100.570798 7.63857208,98.53063 C7.63857208,96.4899842 8.43346098,94.571567 9.87619628,93.1286958 L93.1375864,9.87617186 C94.5803217,8.43377808 96.4980807,7.63929174 98.5385343,7.63929174 L162.501072,7.63929174 C166.71279,7.63929174 170.139644,11.066469 170.139644,15.2785835 L170.139644,79.2457154 L170.139644,79.2457154 Z" id="Shape"></path>
            <path d="M192.370635,11.1111111 L192.370635,84.8450489 C192.370635,86.9463388 191.576704,88.9222593 190.135707,90.4080099 L100,183.32642 L105.394438,188.888889 L195.529669,95.9709708 C198.392111,93.0201187 200,89.01813 200,84.8450489 L200,11.1111111 L192.370635,11.1111111 Z" id="Path"></path>
            <path d="M136.111111,27.7777778 C128.454427,27.7777778 122.222222,34.0065104 122.222222,41.6666667 C122.222222,49.3268229 128.454427,55.5555556 136.111111,55.5555556 C143.767795,55.5555556 150,49.3268229 150,41.6666667 C150,34.0065104 143.767361,27.7777778 136.111111,27.7777778 Z M136.111111,48.6111111 C132.279514,48.6111111 129.166667,45.4947917 129.166667,41.6666667 C129.166667,37.8385417 132.279514,34.7222222 136.111111,34.7222222 C139.942708,34.7222222 143.055556,37.8385417 143.055556,41.6666667 C143.055556,45.4947917 139.942708,48.6111111 136.111111,48.6111111 Z" id="Shape"></path>
        </g>
    </g>
</svg>