<?xml version="1.0" encoding="UTF-8"?>
<svg width="200px" height="200px" viewBox="0 0 200 200" version="1.1" xmlns="http://www.w3.org/2000/svg" xmlns:xlink="http://www.w3.org/1999/xlink">
    <!-- Generator: Sketch 57 (83077) - https://sketch.com -->
    <title>Artboard</title>
    <desc>Created with Sketch.</desc>
    <g id="Artboard" stroke="none" stroke-width="1" fill="none" fill-rule="evenodd">
        <g id="file-(1)" transform="translate(12.000000, 0.000000)" fill="#FFFFFF" fill-rule="nonzero">
            <path d="M132.142885,82.4414342 L132.142885,46.40055 C132.142885,45.3689421 131.657686,44.4157948 130.971306,43.661704 L89.832902,1.23066443 C89.0651626,0.437343433 87.973464,0 86.8832446,0 L21.6594214,0 C9.61819162,0 0,9.64480526 0,21.4734219 L0,142.614673 C0,154.44329 9.61819162,163.929721 21.6594214,163.929721 L73.1438165,163.929721 C82.8818282,179.806308 100.582733,190.443491 120.746615,190.443491 C151.377789,190.443491 176.392254,165.992936 176.392254,135.867087 C176.433607,109.550921 157.197224,87.5616953 132.142885,82.4414342 Z M90.9246006,13.9325151 L118.524757,42.4702702 L100.622673,42.4702702 C95.2884373,42.4702702 90.9246006,38.1447826 90.9246006,32.9053783 L90.9246006,13.9325151 Z M21.6594214,155.990701 C14.1033279,155.990701 8.0827127,150.036436 8.0827127,142.614673 L8.0827127,21.4734219 C8.0827127,14.0109756 14.1033279,7.93902003 21.6594214,7.93902003 L82.8418879,7.93902003 L82.8418879,32.9053783 C82.8418879,42.5501832 90.8033009,50.4092902 100.622673,50.4092902 L124.060172,50.4092902 L124.060172,81.4083735 C122.848653,81.3691432 121.878254,81.25 120.827975,81.25 C106.724647,81.25 93.7529583,86.5693177 83.9735271,94.9049984 L32.6518516,94.9049984 C30.4285138,94.9049984 28.6104952,96.6906966 28.6104952,98.8730552 C28.6104952,101.056867 30.4285138,102.842565 32.6518516,102.842565 L76.4573736,102.842565 C73.5875961,106.812075 71.2030187,110.781585 69.3450598,115.147756 L32.6518516,115.147756 C30.4285138,115.147756 28.6104952,116.933454 28.6104952,119.117266 C28.6104952,121.299624 30.4285138,123.086776 32.6518516,123.086776 L66.7178824,123.086776 C65.7075432,127.056286 65.1824034,131.461687 65.1824034,135.867087 C65.1824034,143.011333 66.5965823,150.077119 69.1424,156.031384 L21.6594214,156.031384 L21.6594214,155.990701 Z M120.788035,182.545154 C94.6020576,182.545154 73.3050564,161.626766 73.3050564,135.906317 C73.3050564,110.185868 94.5606381,89.2674805 120.788035,89.2674805 C147.013953,89.2674805 168.269534,110.185868 168.269534,135.906317 C168.269534,161.626766 146.974012,182.545154 120.788035,182.545154 Z" id="Shape"></path>
            <path d="M32.6518516,82.9572381 L73.5875961,82.9572381 C75.8109339,82.9572381 77.6289528,81.1700866 77.6289528,78.9877281 C77.6289528,76.8039163 75.8109339,75.0182181 73.5875961,75.0182181 L32.6518516,75.0182181 C30.4285138,75.0182181 28.6104952,76.8039163 28.6104952,78.9877281 C28.6104952,81.1700866 30.4285138,82.9572381 32.6518516,82.9572381 Z" id="Path"></path>
            <path d="M141.477058,135.072313 L124.869331,152.656138 L124.869331,109.312634 C124.869331,107.128823 123.049834,105.343124 120.827975,105.343124 C118.604637,105.343124 116.786619,107.128823 116.786619,109.312634 L116.786619,152.656138 L100.056114,135.072313 C98.5206347,133.485672 95.9348767,133.366528 94.3180384,134.874709 C92.7012001,136.382891 92.5799,138.883449 94.1168581,140.471544 L117.757018,165.437903 C118.524757,166.231223 119.575036,166.707797 120.706675,166.707797 C121.838314,166.707797 122.888593,166.231223 123.656333,165.437903 L147.337912,140.471544 C148.873391,138.883449 148.792031,136.343661 147.175193,134.874709 C145.518414,133.366528 143.014016,133.485672 141.477058,135.072313 Z" id="Path"></path>
        </g>
    </g>
</svg>