<svg xmlns="http://www.w3.org/2000/svg" width="21" height="20" viewBox="0 0 21 20">
    <g fill="#C6C6C6" fill-rule="nonzero">
        <path d="M18.463 12.305a.65.65 0 0 0-.469.196.664.664 0 0 0-.197.467v4.359c0 .359-.148.683-.385.919a1.326 1.326 0 0 1-.923.383H2.66a1.314 1.314 0 0 1-1.308-1.302V4.536c0-.36.148-.683.385-.92.237-.235.563-.383.923-.383h4.378a.65.65 0 0 0 .469-.196.66.66 0 0 0 .005-.934.67.67 0 0 0-.47-.196H2.66a2.64 2.64 0 0 0-1.865.771A2.608 2.608 0 0 0 .02 4.536v12.79c0 .723.296 1.382.775 1.858a2.631 2.631 0 0 0 1.865.772h13.83a2.64 2.64 0 0 0 1.865-.772c.478-.476.774-1.13.774-1.857v-4.359a.66.66 0 0 0-.192-.467.67.67 0 0 0-.474-.196z"/>
        <path d="M19.46 1.273l-.577-.575-.124.123.124-.123a2.399 2.399 0 0 0-3.381 0L6.707 9.455a.723.723 0 0 0-.173.29L5.38 13.901a.665.665 0 0 0 .168.644.658.658 0 0 0 .646.167l4.175-1.15a.63.63 0 0 0 .291-.172l8.8-8.752c.464-.467.701-1.076.701-1.686 0-.604-.232-1.213-.7-1.68zm-2.28 3.769l-6.954 6.919-2.078-2.07 6.954-6.918 2.078 2.069zM8.963 12.58l-1.984.545.547-1.975 1.437 1.43zm9.56-10.369a1.05 1.05 0 0 1 0 1.494l-.4.398-2.078-2.069.4-.398a1.06 1.06 0 0 1 1.5 0l.577.575z"/>
    </g>
</svg>
