<svg xmlns="http://www.w3.org/2000/svg" width="19" height="16" viewBox="0 0 19 16">
    <path fill="#C6C6C6" fill-rule="nonzero" d="M18.144 5.947a.571.571 0 0 0-.47-.245h-1.71V3.42c0-.629-.511-1.14-1.14-1.14H8.788L6.675.167A.57.57 0 0 0 6.272 0H1.14C.512 0 0 .512 0 1.14v14.254a.57.57 0 0 0 .57.57h13.684a.57.57 0 0 0 .534-.37l3.42-9.122a.57.57 0 0 0-.064-.525zM1.14 1.14h4.896l2.113 2.114a.57.57 0 0 0 .403.167h6.272V5.7H3.99a.57.57 0 0 0-.534.37L1.14 12.25V1.14zM13.86 14.824H1.393l2.993-7.982h12.466l-2.993 7.982z"/>
</svg>
