<svg xmlns="http://www.w3.org/2000/svg" width="20" height="20" viewBox="0 0 20 20">
    <path fill="#C3C3C3" fill-rule="nonzero" d="M19.414 5.938h-1.797V4.18a.586.586 0 0 0-.586-.586h-2.097L11.591.176A.592.592 0 0 0 11.17 0H5.314a.586.586 0 0 0-.586.586v3.008H2.969a.586.586 0 0 0-.586.586v1.758H.586A.586.586 0 0 0 0 6.522V17.07c0 .324.262.586.586.586h4.14v1.758c0 .324.263.586.587.586h9.375a.586.586 0 0 0 .585-.586v-1.758h4.141A.586.586 0 0 0 20 17.07V6.523a.586.586 0 0 0-.586-.585zm-2.969 0h-1.172V4.766h1.172v1.171zm-4.687-3.915l1.537 1.57h-1.537v-1.57zm-5.86-.851h4.688V4.18c0 .323.262.586.586.586h2.93V8.28H5.898v-7.11zM3.555 4.766h1.172v1.171H3.555V4.766zm10.547 14.062H5.898v-4.687h8.204v4.687zm4.726-2.344h-3.555v-2.343h1.172v.586a.586.586 0 0 0 1.172 0v-1.172a.586.586 0 0 0-.586-.586H2.97a.586.586 0 0 0-.586.586v1.172a.586.586 0 0 0 1.172 0v-.586h1.172v2.343H1.172V7.11h3.555v1.172H2.969a.586.586 0 0 0 0 1.172H17.03a.586.586 0 0 0 0-1.172h-1.758V7.11h3.555v9.375z"/>
</svg>
