<?xml version="1.0" encoding="UTF-8"?>
<svg width="200px" height="200px" viewBox="0 0 200 200" version="1.1" xmlns="http://www.w3.org/2000/svg" xmlns:xlink="http://www.w3.org/1999/xlink">
    <!-- Generator: Sketch 57 (83077) - https://sketch.com -->
    <title>Artboard</title>
    <desc>Created with Sketch.</desc>
    <g id="Artboard" stroke="none" stroke-width="1" fill="none" fill-rule="evenodd">
        <g id="folder-copy" fill="#C5C5C5" fill-rule="nonzero">
            <path d="M143.023952,21.0459184 C153.75479,21.0459184 162.48503,29.6288265 162.48503,40.1785714 L162.48503,75 L180,75 L180,7.65306122 C180,3.42627551 176.51491,0 172.215569,0 L57.7844311,0 C53.4850898,0 50,3.42627551 50,7.65306122 L50,21.0459184 L143.023952,21.0459184 Z" id="Path"></path>
            <path d="M56.435479,56.0810811 C64.7617066,56.0810811 72.518503,59.9660811 77.7173353,66.7404054 L87.8935329,80 L155,80 L155,43.1081081 C155,38.63 151.51491,35 147.215569,35 L32.7844311,35 C28.4850898,35 25,38.63 25,43.1081081 L25,56.0810811 L56.435479,56.0810811 Z" id="Path"></path>
            <path d="M105.350612,150 L89.6493883,150 C86.1815039,150 83.1734911,152.33775 82.3347908,155.685375 L80,165 L115,165 L112.665586,155.685375 C111.826509,152.33775 108.818496,150 105.350612,150 L105.350612,150 Z" id="Path"></path>
            <path d="M184.375,88.0869565 L84.2890625,88.0869565 C81.9148438,88.0869565 79.6691406,87.0053913 78.1867188,85.1474783 L66.8007812,70.8789565 C63.8355469,67.1635217 59.3445313,65 54.5957031,65 L15.625,65 C6.99570312,65 0,72.0078696 0,80.6521739 L0,184.347826 C0,192.99213 6.99570312,200 15.625,200 L184.375,200 C193.004297,200 200,192.99213 200,184.347826 L200,103.73913 C200,95.0948261 193.004297,88.0869565 184.375,88.0869565 Z M128.570703,174.123826 C126.800391,176.393783 124.135547,177.695652 121.260156,177.695652 L78.7398438,177.695652 C75.8644531,177.695652 73.1996094,176.393783 71.4292969,174.123826 C69.6589844,171.853478 69.0425781,168.948435 69.7382813,166.153348 L72.9132813,153.396826 C74.3347656,147.68613 78.1597656,143.102783 83.1492188,140.613696 C81.4488281,137.712957 80.46875,134.339522 80.46875,130.73913 C80.46875,119.95087 89.2304688,111.173913 100,111.173913 C110.769531,111.173913 119.53125,119.95087 119.53125,130.73913 C119.53125,134.339522 118.551172,137.712957 116.850781,140.613696 C121.839844,143.102783 125.664844,147.68613 127.086719,153.396826 L130.261719,166.153739 C130.957422,168.948435 130.341016,171.853478 128.570703,174.123826 Z" id="Shape"></path>
            <circle id="Oval" cx="97.5" cy="132.5" r="7.5"></circle>
        </g>
    </g>
</svg>