<svg xmlns="http://www.w3.org/2000/svg" width="16" height="13" viewBox="0 0 16 13">
    <g fill="#FFF" fill-rule="nonzero">
        <path d="M7.544 4.892L4.365 8.07l.83.83 1.762-1.76v5.833h1.174V7.139l1.761 1.762.83-.83z"/>
        <path d="M12.239 4.652A4.761 4.761 0 0 0 7.485.027c-1.184 0-2.32.439-3.195 1.234a4.747 4.747 0 0 0-1.466 2.575A3.571 3.571 0 0 0 .955 4.902 3.57 3.57 0 0 0 0 7.337a3.585 3.585 0 0 0 3.581 3.58h.617V9.745h-.62a2.41 2.41 0 0 1-2.404-2.407c0-1.246.972-2.3 2.212-2.4l.487-.039.05-.486a3.57 3.57 0 0 1 3.562-3.21 3.585 3.585 0 0 1 3.582 3.58V5.81h.85c1.085 0 1.968.882 1.968 1.967a1.969 1.969 0 0 1-1.967 1.967H10.89v1.174H11.918a3.144 3.144 0 0 0 3.14-3.141 3.145 3.145 0 0 0-2.819-3.125z"/>
    </g>
</svg>
